<?xml version="1.0" encoding="utf-8"?>
<!-- Generator: Adobe Illustrator 25.1.0, SVG Export Plug-In . SVG Version: 6.00 Build 0)  -->
<svg version="1.1" id="Layer_1" xmlns="http://www.w3.org/2000/svg" xmlns:xlink="http://www.w3.org/1999/xlink" x="0px" y="0px"
	 viewBox="0 0 148 26" style="enable-background:new 0 0 148 26;" xml:space="preserve">
<style type="text/css">
	.st0{fill:#0C2948;}
</style>
<g>
	<g>
		<g>
			<path class="st0" d="M12.71,24.83c-1.29-1.37-3.79-5.34-3.63-15.59c0.04-2.76,1.52-5.31,3.92-6.68c2.9-1.64,7.93-2.79,16.62-1.33
				c1.35,0.23,2.13,1.69,1.52,2.91c-0.42,0.84-1.4,1.82-3.42,2.81c-1.07,0.53-2.19,0.94-3.35,1.24c-1.72,0.45-4.94,1.27-6.64,1.53
				c0,0,0.83,12.65-2.45,15.3C14.51,25.65,13.39,25.55,12.71,24.83z"/>
		</g>
		<g>
			<circle class="st0" cx="23.9" cy="15.47" r="3.88"/>
		</g>
	</g>
</g>
<g>
	<path class="st0" d="M46.31,8.4h6.79v1.53h-5.15v3.98h4.37v1.55h-4.37V21h-1.64V8.4z"/>
	<path class="st0" d="M56.74,9.14c0,0.29-0.1,0.53-0.31,0.74s-0.47,0.31-0.77,0.31s-0.55-0.1-0.76-0.31s-0.31-0.45-0.31-0.74
		c0-0.3,0.1-0.55,0.31-0.76c0.2-0.2,0.46-0.31,0.76-0.31s0.56,0.1,0.77,0.31C56.63,8.59,56.74,8.84,56.74,9.14z M54.88,11.93h1.55
		V21h-1.55V11.93z"/>
	<path class="st0" d="M64.6,11.93h1.84l-2.95,4.39L66.64,21H64.8l-2.36-3.46L60.1,21h-1.84l3.13-4.68l-2.93-4.39h1.84l2.14,3.17
		L64.6,11.93z"/>
	<path class="st0" d="M68.45,8.4h6.79v1.53h-5.15v3.98h4.37v1.55h-4.37V21h-1.64V8.4z"/>
	<path class="st0" d="M80.76,11.73c1.34,0,2.44,0.44,3.29,1.33c0.86,0.88,1.3,2.01,1.3,3.4c0,1.39-0.43,2.53-1.3,3.4
		c-0.85,0.89-1.95,1.33-3.29,1.33c-1.36,0-2.47-0.44-3.33-1.33c-0.85-0.89-1.28-2.02-1.28-3.4c0-1.38,0.43-2.51,1.28-3.4
		C78.3,12.17,79.41,11.73,80.76,11.73z M80.78,13.17c-0.91,0-1.64,0.31-2.2,0.94c-0.55,0.6-0.83,1.39-0.83,2.36
		c0,0.95,0.28,1.73,0.83,2.36s1.28,0.94,2.2,0.94c0.89,0,1.6-0.31,2.14-0.94c0.55-0.62,0.83-1.41,0.83-2.36
		c0-0.97-0.28-1.76-0.83-2.36C82.38,13.48,81.67,13.17,80.78,13.17z"/>
	<path class="st0" d="M91.69,11.84v1.55c-0.74,0-1.36,0.22-1.84,0.67c-0.53,0.48-0.8,1.19-0.83,2.14V21h-1.55v-9.07h1.39l0.11,1.58
		c0.18-0.49,0.51-0.89,0.98-1.21C90.43,11.99,91.01,11.84,91.69,11.84z"/>
	<path class="st0" d="M102.87,11.73c0.94,0,1.66,0.31,2.17,0.92s0.76,1.44,0.76,2.48V21h-1.55v-5.62c0-0.68-0.15-1.21-0.46-1.58
		s-0.74-0.56-1.29-0.56c-0.61,0-1.11,0.25-1.49,0.75c-0.38,0.5-0.58,1.17-0.59,2.03V21h-1.55v-5.62c0-0.68-0.15-1.21-0.46-1.58
		s-0.74-0.56-1.29-0.56c-0.62,0-1.13,0.26-1.51,0.78c-0.38,0.52-0.58,1.23-0.58,2.12V21h-1.55v-9.07h1.39l0.09,1.24
		c0.23-0.43,0.56-0.78,1-1.04c0.44-0.26,0.95-0.4,1.52-0.4c1.3,0,2.18,0.58,2.65,1.73C100.72,12.31,101.63,11.73,102.87,11.73z"/>
</g>
<g>
</g>
<g>
</g>
<g>
</g>
<g>
</g>
<g>
</g>
<g>
</g>
</svg>
